<?xml version="1.0" standalone="no"?><svg xmlns="http://www.w3.org/2000/svg" viewBox="0 0 1440 320"><path fill="#ff5500" fill-opacity="1" d="M0,128L0,192L84.7,192L84.7,288L169.4,288L169.4,288L254.1,288L254.1,160L338.8,160L338.8,96L423.5,96L423.5,160L508.2,160L508.2,160L592.9,160L592.9,256L677.6,256L677.6,288L762.4,288L762.4,32L847.1,32L847.1,288L931.8,288L931.8,32L1016.5,32L1016.5,64L1101.2,64L1101.2,320L1185.9,320L1185.9,288L1270.6,288L1270.6,256L1355.3,256L1355.3,224L1440,224L1440,0L1355.3,0L1355.3,0L1270.6,0L1270.6,0L1185.9,0L1185.9,0L1101.2,0L1101.2,0L1016.5,0L1016.5,0L931.8,0L931.8,0L847.1,0L847.1,0L762.4,0L762.4,0L677.6,0L677.6,0L592.9,0L592.9,0L508.2,0L508.2,0L423.5,0L423.5,0L338.8,0L338.8,0L254.1,0L254.1,0L169.4,0L169.4,0L84.7,0L84.7,0L0,0L0,0Z"></path></svg>